<?xml version="1.0" standalone="no"?>
<!DOCTYPE svg PUBLIC "-//W3C//DTD SVG 20010904//EN" "http://www.w3.org/TR/2001/REC-SVG-20010904/DTD/svg10.dtd">
<!-- Created using Krita: http://krita.org -->
<svg xmlns="http://www.w3.org/2000/svg" 
    xmlns:xlink="http://www.w3.org/1999/xlink"
    xmlns:krita="http://krita.org/namespaces/svg/krita"
    xmlns:sodipodi="http://sodipodi.sourceforge.net/DTD/sodipodi-0.dtd"
    width="595.2pt"
    height="841.92pt"
    viewBox="0 0 595.2 841.92">
<defs/>
<path id="shape0" transform="translate(252.933981629313, 21.5999993156546)" fill="none" stroke="#1e1e1e" stroke-width="6" stroke-linecap="square" stroke-linejoin="miter" stroke-miterlimit="2" d="M73.946 593.28C77.8644 469.665 106.059 238.065 70.586 206.88C20.1688 207.113 62.6939 208.095 19.226 208.8C19.1356 202.652 70.7128 212.411 70.586 206.4C70.5317 203.824 70.6297 204.845 71.3735 185.611C56.564 185.57 18.146 186.405 18.266 185.76C27.7248 186.149 57.8376 185.397 71.546 185.76C97.275 162.122 94.0395 116.694 84.026 83.04C73.8167 48.728 56.4582 26.1671 44.666 0C36.8762 27.9288 29.0362 52.2488 21.146 72.96C-6.22458 123.452 -7.02458 160.892 18.746 185.28C18.842 189.984 19.002 197.824 19.226 208.8C-20.0357 319.025 16.986 465.12 15.866 593.28"/>
</svg>
